<svg id="Layer_1" data-name="Layer 1" xmlns="http://www.w3.org/2000/svg" viewBox="0 0 1200.33 400.65"><defs><style>.cls-1{fill:#fefdfd;}.cls-2{fill:#010101;}.cls-3{fill:#111;}.cls-4{fill:#0b0b0b;}.cls-5{fill:#101111;}.cls-6{fill:#0c0c0c;}.cls-7{fill:#0a0a0a;}.cls-8{fill:#101010;}.cls-9{fill:#131313;}.cls-10{fill:#151515;}.cls-11{fill:#0e0f0f;}.cls-12{fill:#181818;}.cls-13{fill:#222323;}.cls-14{fill:#1c1c1c;}.cls-15{fill:#212222;}.cls-16{fill:#1e1f1f;}.cls-17{fill:#252626;}.cls-18{fill:#242525;}.cls-19{fill:#272828;}.cls-20{fill:#232323;}.cls-21{fill:#282929;}.cls-22{fill:#232424;}.cls-23{fill:#323333;}.cls-24{fill:#252525;}.cls-25{fill:#1f2020;}.cls-26{fill:#1e1e1e;}.cls-27{fill:#2c2d2d;}.cls-28{fill:#202020;}.cls-29{fill:#2f3030;}.cls-30{fill:#262626;}.cls-31{fill:#212121;}.cls-32{fill:#2b2b2b;}.cls-33{fill:#1d1e1e;}.cls-34{fill:#242424;}.cls-35{fill:#2c2c2c;}.cls-36{fill:#303030;}.cls-37{fill:#272727;}.cls-38{fill:#dad9d9;}.cls-39{fill:#818081;}.cls-40{fill:silver;}.cls-41{fill:#fff;}.cls-42{fill:#0f1010;}.cls-43{fill:#090909;}.cls-44{fill:#080808;}.cls-45{fill:#1f1f1f;}.cls-46{fill:#2d2d2d;}.cls-47{fill:#0d0d0d;}.cls-48{fill:#202121;}</style></defs><title>doyalogo</title><path class="cls-1" d="M600.78,401.2q-298.51,0-597,.06c-2.55,0-3.13-.57-3.12-3.12q.1-197.2,0-394.4C.61,1.19,1.19.62,3.74.62q597,.09,1194.08,0c2.55,0,3.13.57,3.12,3.12q-.11,197.21,0,394.4c0,2.55-.57,3.12-3.12,3.12Q899.31,401.16,600.78,401.2Z" transform="translate(-0.62 -0.62)"/><path class="cls-2" d="M160.8,101.13c5,5.67,10.63,5.29,16.49,3.25,11.42-4,22.92-7.76,34.22-12.06C239.67,81.61,269.09,76.6,298.8,73c9.85-1.2,19.87-2.2,29.75-.2,6.44,1.29,12.49,4,18.45,6.74A74.48,74.48,0,0,1,369.2,95c9.11,9.44,16.91,19.83,21.32,32.61,6.79,19.65,9.28,39.85,9,60.44a159,159,0,0,1-6.69,43.1,156.3,156.3,0,0,1-12.27,30.8c-3.53,6.51-7.52,12.63-14.2,16.46a8.33,8.33,0,0,0-3.58,3.52,4.64,4.64,0,0,1-2.76,2.41c-4.82,1.52-9.47,3.71-14.76,3.33a136.4,136.4,0,0,1-22.78-3.44A160.76,160.76,0,0,0,292,280.12c-16.84-.8-33.63-2.6-50.46-3.49-20.22-1.08-40.46-2.73-60.74-1.77-3.34.16-3.57-1.1-3.61-3.77-.17-14.26,1.75-28.43,1.4-42.74-.33-13.92-1.18-27.78-2.18-41.65a111.27,111.27,0,0,1-.42-11.54,255,255,0,0,0-1.5-31.51c-1.05-11.26-6.12-21.21-11.08-31.13A24.64,24.64,0,0,1,160.8,101.13Z" transform="translate(-0.62 -0.62)"/><path class="cls-2" d="M561.07,95.47c-2.06,1.4-2.05,2.13-.06,3.3,7.19,4.23,11.78,11.13,17,17.36,5.77,6.94,12.4,13.18,17.45,20.69,5.15,7.67,10.61,15.14,14.49,23.61,8.59,18.76,7.61,38.06,4,57.7-5.18,28-20.4,49.28-42.86,65.91-2.89,2.14-6.21,3.69-9.34,5.49a16,16,0,0,0-8.19,12.19c-.55,4-2.94,6.21-6.37,7.65-3,1.25-5.31,0-6-3.19-.5-2.42-1-4.86-1.55-7.27-.24-1,.16-2.81-1.32-2.66a3.33,3.33,0,0,0-3.16,3c-.48,3.36-1.24,6.68-2,10-.56,2.43-1.13,4.91-4,5.74-3.59,1-7,1.12-9.63-2.06-5.37-6.46-12-11.66-17.95-17.52-5.78-5.67-13.51-7.58-20.92-9.8-8.95-2.68-18-5.09-27.06-7.4-10.13-2.58-19.95-6.66-26.5-15.74-4.33-6-6.54-12.85-8.12-19.94-2.48-11.13-5.53-22.19-7.06-33.45-1.49-11-2.77-22.34-.28-33.37,1.45-6.4,2.83-12.91,6.3-18.86,3.23-5.51,5.16-11.78,7.84-17.63,3.38-7.38,8.6-13.51,13.83-19.61,6.26-7.33,13-14.1,21-19.55a51.33,51.33,0,0,1,23.27-8.46c7.05-.85,14.1-1.91,21.1-3,10.78-1.66,21.06-.31,31.1,2.76C544.09,93.81,552.2,94.46,561.07,95.47Z" transform="translate(-0.62 -0.62)"/><path class="cls-2" d="M885.91,244.17c-8.32,0-8.3.83-9.69,8.88-2.13,12.26,2.44,23.73,2.8,35.65.12,4,.2,7.93.14,11.88a7.17,7.17,0,0,1-2.92,5.88c-.36.26-.66.63-1,.89-2.23,1.54-3.05,4.73-6.55,4.89-5.35.25-10.63.73-15.18-2.94a13.93,13.93,0,0,0-1.73-1.08c-4.51-2.61-4.49-2.59-7.4,1.74-2,2.93-4.4,5-8.29,4.93s-8.1,1.37-12-.57c-4.91-2.43-6.93-7.19-8.61-11.77-4.9-13.28-9.07-27-9.52-41.09-.42-12.93,1.86-25.69,13.59-34.49,6.84-5.14,13.83-10.42,19.41-16.81,7-8,15.17-14.89,21.59-23.34a52.77,52.77,0,0,0,9.25-19.39c1.44-5.81,3.09-11.58,4.19-17.46,2.27-12.11,1.9-24-3.46-35.48-.71-1.52-1.13-3.18-1.69-4.78-1.67-4.78-.9-6.79,3.55-9.26,4.8-2.67,10.14-3.82,15.35-5.2,14.74-3.88,29.17-.75,43.63,2.16,10.59,2.13,20.08,6.67,29.25,12.19,6.38,3.85,13.54,6.26,19.89,10.23a51.46,51.46,0,0,1,7.11,5.18c2.3,2.08,4.25,4.22,4.9,7.48.82,4.14,2.25,8.08,2.57,12.42.34,4.68,2.54,9.07,4.23,13.49,4.92,12.87,11.1,25.19,16.41,37.88a28,28,0,0,1,1.58,6.57c.93,6,1.76,12.05,2.54,18.08,1.22,9.54,5.49,18.08,8.58,27,2.44,7.09,6.76,13.26,9.22,20.36,3.14,9.09,7,18,7.93,27.63.44,4.48,1.53,9.05-1.82,13.33-2.85,3.65-6.92,3.57-10.59,4.54-7.14,1.89-14.41,0-21.62.05a14.18,14.18,0,0,0-1.69-.16c-9.68,1.25-13.6-5-16.64-12.6-3.74-9.33-6.6-19-10-28.41a52.6,52.6,0,0,1-3-12.49c-.32-3.1-2-4-4.57-4.33-.79-.09-1.59-.08-2.38-.11-5.19-.2-7-2.18-6.71-7.53.18-4.18.4-8.37.52-12.56.2-6.81-4.76-12.52-11.39-14.18-9.5-2.39-19.06-3.9-28.84-3.05-7.06.61-14.19,1-20.44,5.24a16,16,0,0,0-6.37,8.89c-1.38,4.47-3.28,8.33-7.33,10.86C890.42,243.78,888.28,245,885.91,244.17Z" transform="translate(-0.62 -0.62)"/><path class="cls-2" d="M736.43,324.38a14.34,14.34,0,0,1-9.7-8.3c-1.32-3-4.4-4.15-6.29-6.51-1.18-1.47-2.41-2.9-4-4.79-.62,1.93-1.15,3.47-1.61,5a3,3,0,0,1-2.33,2.22c-1.36.31-2-.63-2.67-1.63a8.59,8.59,0,0,1-1-7.19c1.13-4.11,1.41-8.41,3.44-12.35a14.36,14.36,0,0,0,1.16-6.61,124,124,0,0,1,.3-14.94c.93-8.59-.82-16.8-2.39-25.12-2.2-11.7-8.47-21.29-15.34-30.56-3.43-4.62-5.85-9.94-10.19-14.41-.84,1.54-1.6,3-2.38,4.38-3.11,5.59-10.08,8.82-15.75,7.37-2.62-.67-4-1.78-2.69-4.78a36.41,36.41,0,0,0,1.78-6.55c.5-2.26-1.74-6.58-3.56-7.13-2-.6-5.24,1.47-6.24,4.23-1.73,4.8-3.29,9.65-5,14.44a11.13,11.13,0,0,1-10.32,7.49c-4.54.12-6.49-1.94-5.53-6.44,1.24-5.84,2.38-11.73,4.76-17.28a17.4,17.4,0,0,0,1.72-6.85,8.62,8.62,0,0,0-4.26-7.88c-7.27-4.82-9.85-13.1-6.89-21.3,1.27-3.52,2.46-7.06,3.9-10.5.51-1.22,0-1.69-.73-2.22-3.4-2.53-3.66-5.73-2.77-9.66a79.72,79.72,0,0,0,1.46-26.68,20,20,0,0,0-2.51-7.33,19.45,19.45,0,0,1-2.14-13.38c.47-2.49,1.65-3.62,4.11-3.42,9.85.8,19.52,2.32,28.4,7.09,5.37,2.89,10.7,5.89,16.22,8.46,9.79,4.55,14.75,12.87,18.29,22.43.29.54,0,.76-.47.9-1.52.43-.22,1.33-.33,2,5.9,8,6.3,17.94,9.34,26.94,1.37,4,4.25,6.25,7.38,8.45,1.86,1.31,2.95-.18,4-1.35,1.86-2.12,2.88-1.57,3.56.92,1.32,4.88,3.39,9.56,3.31,14.81-.05,3,1.25,5.71,2.72,8.28,1.22,2.14,2.6,2.44,4,.17a14.9,14.9,0,0,0,1.81-3.25c1.11-3.51,3.22-5.3,7-4.85a3.41,3.41,0,0,0,3.71-2.36,19.26,19.26,0,0,0,1.43-3.07c1.64-8,7.8-10.35,14.69-11.3,3.11-.43,4.49-1.92,5.51-4.59,3.08-8,4.22-16.34,5-24.78a40,40,0,0,1,8.92-22c4.72-5.75,10.88-8.19,18.34-7.4a3.32,3.32,0,0,1,2.64,1.84c3.77,6.24,6.75,12.55,6.45,20.3-.42,11.3-1.43,22.59-.89,33.92a6.92,6.92,0,0,1-.16,1.69c-.37,1.79-.88,4-2.83,4.13s-1.3-2.26-1.92-3.48c-.4-.79-.64-1.67-1.34-3.57-1.84,4.37-4.51,7.38-4.81,11.56a34.86,34.86,0,0,1-.31,3.69c-.66,3.89-2.37,6.72-6.47,8.18a16.3,16.3,0,0,0-8.2,6.91c-3.66,6-9.64,9.42-14.56,14-6,5.62-12.42,11.05-14.07,19.79-2.06,10.93-2.89,21.77,1.64,32.38a43.33,43.33,0,0,1,3.29,15.82c.18,5.74-.24,11.92,1.76,17.07,2.17,5.6,1.66,10.72.93,16.07s-2.79,6.76-8,7.38c-3.18.39-7-.47-8.6,3.83-.78,2.14-.11,4.25-.25,6.37-.13,1.88.39,3.93-1.52,5.28A1.7,1.7,0,0,1,736.43,324.38Z" transform="translate(-0.62 -0.62)"/><path class="cls-3" d="M588.28,97.25a4.65,4.65,0,1,1,0,9.29,4.65,4.65,0,1,1,0-9.29Z" transform="translate(-0.62 -0.62)"/><path class="cls-4" d="M304.45,289a4.46,4.46,0,0,1,4.44,4.56,4.37,4.37,0,0,1-4.52,4.44,4.48,4.48,0,0,1-4.5-4.51A4.64,4.64,0,0,1,304.45,289Z" transform="translate(-0.62 -0.62)"/><path class="cls-5" d="M722.44,320.75a4.57,4.57,0,0,1-4.33,4.73,4.67,4.67,0,0,1-4.71-4.4,4.74,4.74,0,0,1,4.39-4.74A4.59,4.59,0,0,1,722.44,320.75Z" transform="translate(-0.62 -0.62)"/><path class="cls-6" d="M706.59,329.63a4.49,4.49,0,0,1-9-.14,4.49,4.49,0,1,1,9,.14Z" transform="translate(-0.62 -0.62)"/><path class="cls-6" d="M958.71,276.44a4.58,4.58,0,0,1-4.66-4.39,4.7,4.7,0,0,1,4.4-4.69,4.54,4.54,0,0,1,4.61,4.42A4.49,4.49,0,0,1,958.71,276.44Z" transform="translate(-0.62 -0.62)"/><path class="cls-7" d="M683.49,234.65a4.62,4.62,0,0,1-4.67-4.38,4.55,4.55,0,0,1,9.1-.25A4.61,4.61,0,0,1,683.49,234.65Z" transform="translate(-0.62 -0.62)"/><path class="cls-4" d="M360.83,73.1a4.56,4.56,0,1,1-4.51-4.49A4.54,4.54,0,0,1,360.83,73.1Z" transform="translate(-0.62 -0.62)"/><path class="cls-4" d="M958.79,246.1a4.46,4.46,0,0,1-4.63,4.36,4.37,4.37,0,0,1-4.34-4.6,4.5,4.5,0,0,1,4.57-4.43A4.69,4.69,0,0,1,958.79,246.1Z" transform="translate(-0.62 -0.62)"/><path class="cls-6" d="M847.85,172.56a4.49,4.49,0,0,1-4.59,4.39,4.35,4.35,0,0,1-4.38-4.53,4.43,4.43,0,0,1,4.51-4.45A4.66,4.66,0,0,1,847.85,172.56Z" transform="translate(-0.62 -0.62)"/><path class="cls-8" d="M901.07,247.54a4.47,4.47,0,0,1-4.56,4.41,4.55,4.55,0,0,1-4.37-4.65,4.47,4.47,0,1,1,8.93.24Z" transform="translate(-0.62 -0.62)"/><path class="cls-4" d="M321.64,306.68a4.55,4.55,0,0,1-4.46-4.55,4.49,4.49,0,0,1,4.6-4.38,4.57,4.57,0,0,1,4.49,4.52A4.66,4.66,0,0,1,321.64,306.68Z" transform="translate(-0.62 -0.62)"/><path class="cls-9" d="M835.18,192.46c0,2.29-1.21,3.58-3.26,3.69a3.2,3.2,0,0,1-3.56-3.25,3.27,3.27,0,0,1,3.43-3.73A3.23,3.23,0,0,1,835.18,192.46Z" transform="translate(-0.62 -0.62)"/><path class="cls-10" d="M715.7,147.9c-.14,2.09-1.28,3.47-3.33,3.55a3.28,3.28,0,0,1-3.69-3.49,3.18,3.18,0,0,1,3.46-3.34C714.28,144.59,715.41,145.83,715.7,147.9Z" transform="translate(-0.62 -0.62)"/><path class="cls-8" d="M654.66,76.76A3.32,3.32,0,0,1,658,80.24a3.22,3.22,0,0,1-3.67,3.47,3.16,3.16,0,0,1-3.19-3.59C651.22,78.07,652.47,76.87,654.66,76.76Z" transform="translate(-0.62 -0.62)"/><path class="cls-3" d="M484.6,295.76c2.09.24,3.38,1.49,3.37,3.5a3.21,3.21,0,0,1-3.66,3.47,3.15,3.15,0,0,1-3.19-3.58C481.19,297.1,482.48,295.93,484.6,295.76Z" transform="translate(-0.62 -0.62)"/><path class="cls-8" d="M310.8,308c-.29,2.05-1.39,3.42-3.49,3.42a3.14,3.14,0,0,1-3.39-3.4,3.08,3.08,0,0,1,3.37-3.38C309.46,304.58,310.48,305.92,310.8,308Z" transform="translate(-0.62 -0.62)"/><path class="cls-3" d="M572.92,297.82c-.2,2-1.21,3.39-3.37,3.41a3,3,0,0,1-3.29-3.1,3.09,3.09,0,0,1,3.11-3.63C571.51,294.37,572.61,295.72,572.92,297.82Z" transform="translate(-0.62 -0.62)"/><path class="cls-11" d="M773.26,205.81c-.31,2.05-1.48,3.23-3.64,3.14a3.08,3.08,0,0,1-3.2-3.26,3.13,3.13,0,0,1,3.43-3.39C771.92,202.33,773.14,203.58,773.26,205.81Z" transform="translate(-0.62 -0.62)"/><path class="cls-12" d="M634.3,68.23c1.78-.34,3.72-.35,3.56,2.06-.19,2.76-3.14,2.5-4.88,3.18s-2.55-1.21-2.43-2.77C630.72,68.51,632.05,67.56,634.3,68.23Z" transform="translate(-0.62 -0.62)"/><path class="cls-12" d="M613.64,117.71a2.47,2.47,0,0,1-2.6,2.54c-1.68,0-3.24-.51-3.24-2.61,0-1.77,1.35-2.23,2.78-2.34C612.26,115.17,613.42,115.85,613.64,117.71Z" transform="translate(-0.62 -0.62)"/><path class="cls-13" d="M390.36,101.8a2.25,2.25,0,0,1-2.19,2.43,2.18,2.18,0,0,1-2.53-2.09A2.27,2.27,0,0,1,388,99.46,2.33,2.33,0,0,1,390.36,101.8Z" transform="translate(-0.62 -0.62)"/><path class="cls-14" d="M381.35,81.63a2.36,2.36,0,0,1-2.51,2.2c-1.48.07-2.81-.22-2.9-2-.07-1.54.93-2.22,2.36-2.3A2.67,2.67,0,0,1,381.35,81.63Z" transform="translate(-0.62 -0.62)"/><path class="cls-15" d="M556.53,318.47c1.35.26,2.39.85,2.44,2.35a2.18,2.18,0,0,1-2.22,2.44,2.2,2.2,0,0,1-2.57-2.4C554.19,319.34,555.27,318.78,556.53,318.47Z" transform="translate(-0.62 -0.62)"/><path class="cls-16" d="M499.89,312.36a2.29,2.29,0,0,1-2.41,2.3,2.25,2.25,0,0,1-2.37-2.62,2.4,2.4,0,0,1,4.78.32Z" transform="translate(-0.62 -0.62)"/><path class="cls-14" d="M573.38,84.53c-.2,1.52-1,2.46-2.38,2.45a2.25,2.25,0,0,1-2.39-2.59,2.21,2.21,0,0,1,2.5-2.14A2.31,2.31,0,0,1,573.38,84.53Z" transform="translate(-0.62 -0.62)"/><path class="cls-17" d="M1029.23,222.07c1.42.19,2.34.94,2.27,2.42a2.11,2.11,0,0,1-2.17,2.14,2.15,2.15,0,0,1-2.44-2.21C1026.85,223,1027.81,222.22,1029.23,222.07Z" transform="translate(-0.62 -0.62)"/><path class="cls-18" d="M609.94,72.66a2.44,2.44,0,0,1-2.45-2.36A2.23,2.23,0,0,1,610,67.85a2.13,2.13,0,0,1,2.21,2.41A2.44,2.44,0,0,1,609.94,72.66Z" transform="translate(-0.62 -0.62)"/><path class="cls-19" d="M1032,185a2.31,2.31,0,0,1-2.27-2.45,2.3,2.3,0,1,1,4.59.16A2.3,2.3,0,0,1,1032,185Z" transform="translate(-0.62 -0.62)"/><path class="cls-20" d="M581,40.44a2.3,2.3,0,0,1,2.38,2.34,2.09,2.09,0,0,1-2,2.27A2.13,2.13,0,0,1,578.79,43,2.28,2.28,0,0,1,581,40.44Z" transform="translate(-0.62 -0.62)"/><path class="cls-21" d="M607.07,92.37a2.21,2.21,0,0,1,2.2,2.42,2.28,2.28,0,0,1-4.55,0A2.28,2.28,0,0,1,607.07,92.37Z" transform="translate(-0.62 -0.62)"/><path class="cls-22" d="M403.3,80.13A2.24,2.24,0,0,1,401,82.55a2.18,2.18,0,0,1-2.33-2.37A2.12,2.12,0,0,1,400.8,78,2.2,2.2,0,0,1,403.3,80.13Z" transform="translate(-0.62 -0.62)"/><path class="cls-13" d="M766.41,222.89a2.21,2.21,0,0,1-2.35,2.28,2.17,2.17,0,0,1-2.33-2.33,2.1,2.1,0,0,1,2.16-2.15A2.24,2.24,0,0,1,766.41,222.89Z" transform="translate(-0.62 -0.62)"/><path class="cls-23" d="M290.12,63.77a2.22,2.22,0,0,1-2.28-2,2.19,2.19,0,1,1,4.37-.26A2.27,2.27,0,0,1,290.12,63.77Z" transform="translate(-0.62 -0.62)"/><path class="cls-24" d="M890.86,253.69a2.29,2.29,0,0,1,2.21,2.49,2.06,2.06,0,0,1-2.06,2.21,2.11,2.11,0,0,1-2.36-2.25A2.31,2.31,0,0,1,890.86,253.69Z" transform="translate(-0.62 -0.62)"/><path class="cls-25" d="M546.5,319c-1.56-.35-2.49-1.18-2.31-2.62a2.3,2.3,0,0,1,4.59.29A2.39,2.39,0,0,1,546.5,319Z" transform="translate(-0.62 -0.62)"/><path class="cls-25" d="M888.84,274.79a2.2,2.2,0,0,1-2.42,2.27,2.1,2.1,0,0,1-2.17-2.12,2.3,2.3,0,0,1,4.59-.15Z" transform="translate(-0.62 -0.62)"/><path class="cls-19" d="M398.06,114c1.48.16,2.38,1,2.29,2.4a2.12,2.12,0,0,1-2.47,2.12,2.08,2.08,0,0,1-2.08-2.18A2.18,2.18,0,0,1,398.06,114Z" transform="translate(-0.62 -0.62)"/><path class="cls-18" d="M1014.61,177.65a2.18,2.18,0,0,1-2.1-2.47,2.07,2.07,0,0,1,2.21-2.06,2.13,2.13,0,0,1,2.35,2.28A2.21,2.21,0,0,1,1014.61,177.65Z" transform="translate(-0.62 -0.62)"/><path class="cls-18" d="M846.3,154.56c-1.42-.06-2.37-.73-2.41-2.21a2,2,0,0,1,2-2.22,2.13,2.13,0,0,1,2.59,2C848.66,153.55,847.75,154.39,846.3,154.56Z" transform="translate(-0.62 -0.62)"/><path class="cls-26" d="M856.28,150c1.47.17,2.44.94,2.41,2.37a2.18,2.18,0,0,1-2.44,2.22,2.1,2.1,0,0,1-2.3-2.32C854,150.75,854.94,150.13,856.28,150Z" transform="translate(-0.62 -0.62)"/><path class="cls-27" d="M676.11,88.26c-1.23-.23-2.13-1-2.11-2.19a2.06,2.06,0,0,1,2.37-2.19,2,2,0,0,1,1.94,2.28A2.19,2.19,0,0,1,676.11,88.26Z" transform="translate(-0.62 -0.62)"/><path class="cls-28" d="M674.84,239.37a2.23,2.23,0,0,1,2,2.59,2,2,0,0,1-2.31,1.93,2.1,2.1,0,0,1-2.08-2.21A2.29,2.29,0,0,1,674.84,239.37Z" transform="translate(-0.62 -0.62)"/><path class="cls-15" d="M617.84,89c-.25,1.29-.93,2.16-2.27,2.09a2,2,0,0,1-2.08-2.2,2,2,0,0,1,2.23-2A2.09,2.09,0,0,1,617.84,89Z" transform="translate(-0.62 -0.62)"/><path class="cls-29" d="M771.29,243.87c-1.21-.18-2.14-.78-2.18-2.08a2.07,2.07,0,0,1,2.27-2.29,2,2,0,0,1,2,2.2A2.15,2.15,0,0,1,771.29,243.87Z" transform="translate(-0.62 -0.62)"/><path class="cls-30" d="M629.32,191.36a2,2,0,0,1-2.3,1.94,1.93,1.93,0,0,1-2-2.23,2,2,0,0,1,2.28-2C628.66,189.15,629.23,190.09,629.32,191.36Z" transform="translate(-0.62 -0.62)"/><path class="cls-15" d="M854.13,117.8a2,2,0,0,1-2.24,2,1.9,1.9,0,0,1-2-2.18,1.92,1.92,0,0,1,2.17-2A2.12,2.12,0,0,1,854.13,117.8Z" transform="translate(-0.62 -0.62)"/><path class="cls-14" d="M952,261.89c-.14,1.31-.82,2.1-2.16,2.06a2.12,2.12,0,0,1,.13-4.24C951.36,259.75,952,260.61,952,261.89Z" transform="translate(-0.62 -0.62)"/><path class="cls-31" d="M701.36,313.79c-.23,1.34-1,2.09-2.29,2a1.93,1.93,0,0,1-2-2.2,2.15,2.15,0,0,1,4.29.22Z" transform="translate(-0.62 -0.62)"/><path class="cls-32" d="M730.89,160.25c-1.22-.28-2.11-.86-2-2.24a2,2,0,0,1,2.17-2,2,2,0,0,1,2.06,2.18C733,159.5,732.07,160,730.89,160.25Z" transform="translate(-0.62 -0.62)"/><path class="cls-32" d="M318.94,63.79c-1.4-.3-2.27-1-2.23-2.31a2,2,0,0,1,2.18-2.08A2,2,0,0,1,321,61.6C321,63,319.92,63.45,318.94,63.79Z" transform="translate(-0.62 -0.62)"/><path class="cls-33" d="M733.07,166.57a2,2,0,0,1-2,2.26,1.88,1.88,0,0,1-2.2-2,2,2,0,0,1,1.93-2.29C732.12,164.48,732.8,165.35,733.07,166.57Z" transform="translate(-0.62 -0.62)"/><path class="cls-31" d="M281.16,297.12c1.41.12,2.26.82,2.33,2.09a1.92,1.92,0,0,1-2,2.17,1.89,1.89,0,0,1-2.18-2A2.09,2.09,0,0,1,281.16,297.12Z" transform="translate(-0.62 -0.62)"/><path class="cls-34" d="M620.74,153.73c-.23,1.22-.81,2.11-2.17,2.12a2,2,0,0,1-2.15-2.08,2,2,0,0,1,2.09-2.15C619.85,151.59,620.46,152.52,620.74,153.73Z" transform="translate(-0.62 -0.62)"/><path class="cls-15" d="M744.59,162.43c-.24,1.24-.94,2.11-2.23,2a1.92,1.92,0,0,1-1.94-2.23,1.83,1.83,0,0,1,2-1.86A2.09,2.09,0,0,1,744.59,162.43Z" transform="translate(-0.62 -0.62)"/><path class="cls-35" d="M346.94,302.3a2.12,2.12,0,0,1,2.06-2.17,1.91,1.91,0,0,1,2.1,2.06,1.83,1.83,0,0,1-1.81,2A2.07,2.07,0,0,1,346.94,302.3Z" transform="translate(-0.62 -0.62)"/><path class="cls-31" d="M540.52,80.93c1.44.19,2.26.84,2.29,2.17a1.88,1.88,0,0,1-2.07,2.11,1.93,1.93,0,0,1-2.16-2C538.55,81.8,539.55,81.29,540.52,80.93Z" transform="translate(-0.62 -0.62)"/><path class="cls-36" d="M399.51,101.16c-1.31-.27-2.2-1-2.1-2.29A2,2,0,0,1,399.75,97a1.9,1.9,0,0,1,1.87,2C401.63,100.35,400.65,100.92,399.51,101.16Z" transform="translate(-0.62 -0.62)"/><path class="cls-37" d="M331.84,291.48c1.33.2,2.17.88,2,2.24a2,2,0,0,1-2.32,1.92,2,2,0,0,1-1.82-2.08C329.75,292.17,330.59,291.59,331.84,291.48Z" transform="translate(-0.62 -0.62)"/><path class="cls-14" d="M371.33,292.32a2,2,0,0,1-2.38,1.77,1.88,1.88,0,0,1-1.77-2.12,2.08,2.08,0,0,1,4.15.35Z" transform="translate(-0.62 -0.62)"/><path class="cls-38" d="M694.89,126.61c-1.36-.94-1.33-2.25-1.06-3.68.92.11,1,.81,1.24,1.39s1,.78.48,1.51Z" transform="translate(-0.62 -0.62)"/><path class="cls-8" d="M885.91,244.17l6.76-.74C890.49,244.4,888.32,245.39,885.91,244.17Z" transform="translate(-0.62 -0.62)"/><path class="cls-39" d="M695.55,125.83l-.48-1.51.62-.6C696.14,124.46,697.49,125.25,695.55,125.83Z" transform="translate(-0.62 -0.62)"/><path class="cls-40" d="M736.43,324.38l2.08.05C737.77,326.44,737.1,325.41,736.43,324.38Z" transform="translate(-0.62 -0.62)"/><path class="cls-41" d="M213.21,132.12c3.43-1.84,6.46-1.08,9.14,1.65,2.22,2.26,4.29,4.69,6.68,6.76,3.62,3.13,5.42,3.08,8.69-.41,2.7-2.87,5.09-6.05,7.51-9.19a14.26,14.26,0,0,1,10.18-5.42,5.66,5.66,0,0,1,5.92,6.57c-.59,2.68-1.34,5.25-3.28,7.33a3.35,3.35,0,0,0-1,2.8c.25,1.71.55,3.72,2.16,4.37,1.29.52,2.07-1.37,3.05-2.21a13.91,13.91,0,0,0,4.9-14.3,7.9,7.9,0,0,1,.28-3.68c.41-1.58,1.5-2,3-2.15a2.48,2.48,0,0,1,2.78,1.87c1.94,4.77.33,9.26-1.63,13.39a38.53,38.53,0,0,0-3.22,12.38,7.56,7.56,0,0,0,.43,3.67c.83,2.19,2.31,3.88,4.65,3.89s3.47-1.82,4.15-3.9c1.69-5.11,1.44-10.53,2.64-15.72.48-2.09.69-4.24,1.16-6.34,1.39-6.3,5.94-9.57,12.36-9a5.63,5.63,0,0,1,3.25,1.61,46.78,46.78,0,0,1,12.74,16.06c5,10.66,9.6,21.44,12.24,33,3.53,15.47,4,31.09,3.32,46.87-.33,7.8-5.76,12.53-12.88,11.87a40.9,40.9,0,0,1-9.57-2.17,31.8,31.8,0,0,0-10-1.7c-3-.05-5.58.58-7.6,3-2.22,2.62-4.64,2.81-7.85,1.36-6.55-3-13.42-4.56-20.77-3.7-4,.47-8.15-.12-11.92,1.9-1.26.68-2.38,0-3.44-.79-10.81-7.78-18-17.78-20.52-31.19a143.85,143.85,0,0,1-2.07-32.08A99.91,99.91,0,0,0,213.21,132.12Z" transform="translate(-0.62 -0.62)"/><path class="cls-41" d="M568.85,214.24c.46,9.12-2.79,17.59-4.89,26.2-1.5,6.14-6.32,10.3-11.48,13.74-2.66,1.78-5.52.4-8.22-.14-2.1-.41-4.17-.94-6.28-1.36-6.36-1.25-11.2,1.06-15.05,6-2.28,2.91-4.69,2.75-6.15-.42-3-6.51-9.66-7.43-14.43-1.81-1.81,2.13-3.35,2.66-5.72,1-9-6.28-17-13.19-21.33-23.84-2.2-5.5-6-10.3-8.23-15.9a43.05,43.05,0,0,1-2.49-22.26c1.07-7.56,1.55-15.37,5.59-22.19q4.23-7.14,8.79-14.08c1-1.58,2.31-3.11,4.76-2.08s1.42,2.88,1.18,4.57c-1.26,8.7-2.42,17.37,1.19,25.89.76,1.8,1.24,2.08,3.05,1.42,4.64-1.69,5.11-2.5,5.18-7.22.09-5.5-2.28-10.59-2.11-16.1.12-3.88.3-7.62,4.08-9.75,2.45-1.38,7.73.81,10.69,4.07a2.65,2.65,0,0,1,.21.26c5.27,6.86,9.35,4.17,12.81-1.79.84-1.45,1.21-3.15,2.32-4.49a6.22,6.22,0,0,1,10.34.8c4.55,7.41,3,15.14,1.63,23s-.63,15,3.8,21.75a4.25,4.25,0,0,0,5,1.9c1.76-.44,2.43-2.25,2.4-4-.13-6.31.5-12.67-1.24-18.89-1.05-3.78-.34-7.67-.18-11.49a5,5,0,0,1,4.15-4.75c2.27-.58,4.47-.64,6.29,1.26,3.95,4.12,5.86,9.37,7.76,14.54a112.09,112.09,0,0,1,6.56,26.45A91.83,91.83,0,0,1,568.85,214.24Z" transform="translate(-0.62 -0.62)"/><path class="cls-41" d="M914.2,144.91c1.63.14,4.18-1,3.2,2.63-.36,1.36,1.23,2.36,2.32,3.09,4.56,3.11,9.19,6.12,12.92,10.28.43.48.87,1.22,1.65.87s.66-1.2.55-1.81c-.56-3.22-1.29-6.41-1.83-9.64s.31-3.56,3.43-3.33c5.36.41,5.65,4.89,7.49,8.24.5.93.12,2.84,2.12,2.44s1.48-1.88,1.51-3.41-.32-4.3,1.93-4.42c1.91-.1,3.62,1.59,4.3,3.74,2,6.41,2.74,13.09,4.27,19.61a13.16,13.16,0,0,0,3.07,6.27,8.61,8.61,0,0,1-3,13.55c-4.93,2-9.74,1.19-14.5-.65-1.15-.44-2.3-.89-3.43-1.39-5.14-2.32-9.15-1.67-12.37,3.58-2.08,3.38-8.86,4.67-12.31,3.13-3.81-1.72-7-7.92-6.41-12.66.2-1.55.34-3.38,1.22-4.53,2.92-3.79,2.53-7.84,1.43-11.95-1.66-6.22-2.86-12.59-5.47-18.51-1-2.37-.53-3.46,2-4.14C910.21,145.37,912.11,144.7,914.2,144.91Z" transform="translate(-0.62 -0.62)"/><path class="cls-42" d="M287.52,175.28a4.71,4.71,0,0,1-9.41.21,4.71,4.71,0,0,1,9.41-.21Z" transform="translate(-0.62 -0.62)"/><path class="cls-43" d="M249.79,159.82a4.61,4.61,0,1,1,4.5-4.57A4.7,4.7,0,0,1,249.79,159.82Z" transform="translate(-0.62 -0.62)"/><path class="cls-44" d="M308.56,210.09a4.5,4.5,0,0,1,4.28-4.74,4.62,4.62,0,1,1,.28,9.23A4.55,4.55,0,0,1,308.56,210.09Z" transform="translate(-0.62 -0.62)"/><path class="cls-17" d="M284.25,141.49c-1.28-.19-2.12-.88-2.07-2.21a1.92,1.92,0,0,1,2.22-2,1.88,1.88,0,0,1,1.9,2A2.08,2.08,0,0,1,284.25,141.49Z" transform="translate(-0.62 -0.62)"/><path class="cls-45" d="M230.25,151c-.3,1.26-.94,2.15-2.31,2.06a2,2,0,0,1-2.06-2.24,2,2,0,0,1,2.26-2C229.5,148.82,230.08,149.74,230.25,151Z" transform="translate(-0.62 -0.62)"/><path class="cls-46" d="M292.23,150.94c-.31,1.21-.9,2.16-2.23,2.11a2.08,2.08,0,0,1-2.16-2.42,2,2,0,0,1,2.33-1.89C291.5,148.86,292,149.78,292.23,150.94Z" transform="translate(-0.62 -0.62)"/><path class="cls-47" d="M308.57,223.56c1.64.11,2.44.93,2.38,2.4a2.22,2.22,0,0,1-4.43,0A2.11,2.11,0,0,1,308.57,223.56Z" transform="translate(-0.62 -0.62)"/><path class="cls-31" d="M301.66,147.3a2,2,0,0,1,1.92,2.3,1.94,1.94,0,0,1-2.2,2,2.06,2.06,0,0,1-2-2.31A2,2,0,0,1,301.66,147.3Z" transform="translate(-0.62 -0.62)"/><path class="cls-18" d="M301.29,166c1.43.12,2.22.83,2.3,2.11a1.91,1.91,0,0,1-2,2.19,2,2,0,0,1-2.21-2A2.3,2.3,0,0,1,301.29,166Z" transform="translate(-0.62 -0.62)"/><path class="cls-48" d="M261.25,164.58c1.28.28,2.07,1,2,2.32a1.85,1.85,0,0,1-2,1.86,1.9,1.9,0,0,1-2.15-2C259.11,165.4,260,164.76,261.25,164.58Z" transform="translate(-0.62 -0.62)"/><path class="cls-17" d="M232.39,176.06c-1.15-.18-1.94-.74-2-1.95a1.84,1.84,0,0,1,2-2.17,1.9,1.9,0,0,1,2,1.86C234.53,175.08,233.64,175.83,232.39,176.06Z" transform="translate(-0.62 -0.62)"/><path class="cls-4" d="M545,246.19a4.51,4.51,0,0,1-4.49-4.53,4.5,4.5,0,0,1,9,0A4.48,4.48,0,0,1,545,246.19Z" transform="translate(-0.62 -0.62)"/><path class="cls-4" d="M490.44,198.43a4.42,4.42,0,0,1-4.49,4.49,4.49,4.49,0,0,1-4.52-4.5,4.69,4.69,0,0,1,4.54-4.56A4.52,4.52,0,0,1,490.44,198.43Z" transform="translate(-0.62 -0.62)"/><path class="cls-47" d="M509.24,174.08a4.41,4.41,0,0,1-4.75,4.26,4.13,4.13,0,0,1-4.21-4.39,4.45,4.45,0,0,1,4.5-4.54A4.72,4.72,0,0,1,509.24,174.08Z" transform="translate(-0.62 -0.62)"/><path class="cls-48" d="M510,244.69c-.33,1.29-1.07,2.27-2.55,2.13a2.29,2.29,0,0,1,.18-4.57A2.35,2.35,0,0,1,510,244.69Z" transform="translate(-0.62 -0.62)"/><path class="cls-19" d="M524.32,248.63c-.08,1.51-.79,2.41-2.25,2.46a2.11,2.11,0,0,1-2.37-2.22,2.08,2.08,0,0,1,2-2.2A2.26,2.26,0,0,1,524.32,248.63Z" transform="translate(-0.62 -0.62)"/><path class="cls-19" d="M554.87,206.36a2,2,0,0,1-1.93-2.05,2.12,2.12,0,0,1,2.32-2.31,2.06,2.06,0,0,1,2.06,2.23C557.3,205.45,556.51,206.29,554.87,206.36Z" transform="translate(-0.62 -0.62)"/><path class="cls-37" d="M550.82,183.37c-1.19-.23-2.13-.78-2.15-2.13A2,2,0,0,1,551,179a2,2,0,0,1,2,2.24C552.93,182.55,552,183.11,550.82,183.37Z" transform="translate(-0.62 -0.62)"/><path class="cls-26" d="M525.67,172.36a2.24,2.24,0,0,1-2.07,2.29,2.15,2.15,0,1,1-.14-4.29A2.21,2.21,0,0,1,525.67,172.36Z" transform="translate(-0.62 -0.62)"/><path class="cls-14" d="M515.51,196.9a2.12,2.12,0,0,1-2.06,2.25,2,2,0,0,1-2.21-2,1.91,1.91,0,0,1,2-2.19A2,2,0,0,1,515.51,196.9Z" transform="translate(-0.62 -0.62)"/><path class="cls-7" d="M925.41,166.55a4.5,4.5,0,1,1-4.54,4.53A4.63,4.63,0,0,1,925.41,166.55Z" transform="translate(-0.62 -0.62)"/><path class="cls-35" d="M917.5,159.79a2,2,0,0,1-2.17,1.93,2.07,2.07,0,0,1-2.12-2.46,2,2,0,0,1,2.34-1.89A2.09,2.09,0,0,1,917.5,159.79Z" transform="translate(-0.62 -0.62)"/><path class="cls-35" d="M934,167.46c1.25.18,2.17.87,2.18,2.13a2,2,0,0,1-2.15,2.06,1.85,1.85,0,0,1-1.95-1.87C932,168.4,932.83,167.78,934,167.46Z" transform="translate(-0.62 -0.62)"/></svg>